<svg width="22" height="22" viewBox="0 0 22 22" fill="none" xmlns="http://www.w3.org/2000/svg">
<path d="M11.21 21.6663C11.1394 21.6663 11.0687 21.6663 10.9976 21.666C9.3254 21.6701 7.78031 21.6276 6.27771 21.5361C4.90011 21.4523 3.64262 20.9762 2.64099 20.1595C1.67452 19.3714 1.01453 18.3058 0.679403 16.9926C0.387736 15.8494 0.372274 14.7272 0.357463 13.6417C0.34672 12.8629 0.335653 11.9401 0.333374 11.0016C0.335653 10.0592 0.34672 9.13635 0.357463 8.35754C0.372274 7.27225 0.387736 6.15001 0.679403 5.00662C1.01453 3.69347 1.67452 2.62787 2.64099 1.83979C3.64262 1.02305 4.90011 0.546978 6.27787 0.463156C7.78048 0.371848 9.32589 0.329204 11.0017 0.333273C12.6744 0.329693 14.219 0.371848 15.7216 0.463156C17.0992 0.546978 18.3566 1.02305 19.3583 1.83979C20.3249 2.62787 20.9847 3.69347 21.3199 5.00662C21.6115 6.14985 21.627 7.27225 21.6418 8.35754C21.6525 9.13635 21.6638 10.0592 21.6659 10.9977C21.6638 11.9401 21.6525 12.8629 21.6418 13.6417C21.6356 14.102 21.2554 14.4699 20.7972 14.4637C20.337 14.4573 19.9691 14.0791 19.9753 13.6189C19.9859 12.8447 19.9971 11.9279 19.9992 10.9977C19.9971 10.0714 19.9859 9.15458 19.9753 8.38032C19.9618 7.3922 19.9478 6.37039 19.705 5.41873C19.46 4.45877 18.989 3.68924 18.3051 3.13145C17.5653 2.5281 16.662 2.19005 15.6203 2.12673C14.153 2.03754 12.6426 1.99636 11.0017 1.99978C9.35681 1.99587 7.84623 2.03754 6.37895 2.12673C5.33728 2.19005 4.43412 2.5281 3.69421 3.13129C3.01029 3.68907 2.53927 4.45861 2.29431 5.41873C2.05147 6.37039 2.03748 7.3922 2.02397 8.38032C2.01339 9.15458 2.00232 10.0714 2.00004 11.0016C2.00232 11.9279 2.01339 12.8447 2.02397 13.6189C2.03748 14.6071 2.05147 15.6289 2.29431 16.5805C2.53927 17.5405 3.01029 18.31 3.69421 18.8678C4.43412 19.4712 5.33728 19.8092 6.37895 19.8725C7.84623 19.9617 9.35714 20.0034 10.9978 19.9993C12.6428 20.0032 14.153 19.9617 15.6203 19.8725C16.662 19.8092 17.5651 19.4712 18.3051 18.8678C18.7977 18.466 19.1827 17.9503 19.4491 17.3351C19.632 16.9129 20.1226 16.7187 20.545 16.9017C20.9673 17.0846 21.1613 17.5752 20.9786 17.9975C20.605 18.86 20.0599 19.5874 19.3583 20.1595C18.3566 20.9764 17.0992 21.4523 15.7216 21.5361C14.2826 21.6237 12.8044 21.6663 11.21 21.6663ZM16.1662 10.9996C16.1662 8.12772 13.8298 5.79129 10.9579 5.79129C8.08614 5.79129 5.74955 8.12772 5.74955 10.9996C5.74955 13.8715 8.08614 16.208 10.9579 16.208C13.8298 16.208 16.1662 13.8715 16.1662 10.9996ZM14.4996 10.9996C14.4996 12.9524 12.9108 14.5413 10.9579 14.5413C9.00509 14.5413 7.41622 12.9524 7.41622 10.9996C7.41622 9.04683 9.00509 7.45796 10.9579 7.45796C12.9108 7.45796 14.4996 9.04683 14.4996 10.9996ZM16.7496 4.12462C16.0593 4.12462 15.4996 4.68419 15.4996 5.37462C15.4996 6.06505 16.0593 6.62462 16.7496 6.62462C17.44 6.62462 17.9996 6.06505 17.9996 5.37462C17.9996 4.68419 17.44 4.12462 16.7496 4.12462Z" fill="white"/>
</svg>
