<svg width="92" height="41" viewBox="0 0 92 41" fill="none" xmlns="http://www.w3.org/2000/svg">
<path d="M11.2326 12.3723L11.1969 6.86966L8.59383 11.2933H6.81088L4.20778 7.04949V12.3723H0.534912V0.288086H3.85119L7.73801 6.72581L11.5535 0.288086H14.8698L14.9055 12.3723H11.2326Z" fill="#4DF8AA"/>
<path d="M28.9907 0.288086L24.1768 9.38721C23.6062 10.4662 22.893 11.2933 22.0729 11.8688C21.2527 12.4442 20.3256 12.7319 19.3271 12.7319C18.5783 12.7319 17.7938 12.5881 17.0093 12.2644L17.9364 9.31528C18.4357 9.45914 18.8636 9.53107 19.1845 9.53107C19.4698 9.53107 19.7194 9.4951 19.9333 9.38721C20.1473 9.27931 20.3613 9.09949 20.5395 8.8837L16.0109 0.288086H20.2899L22.6434 5.3951L25.1039 0.288086H28.9907Z" fill="#4DF8AA"/>
<path d="M32.2713 11.8326C31.2729 11.2932 30.4527 10.5379 29.8822 9.6028C29.3116 8.63175 29.0264 7.5528 29.0264 6.32999C29.0264 5.10719 29.3116 4.02824 29.8822 3.05719C30.4527 2.08613 31.2372 1.33087 32.2713 0.827361C33.2698 0.287887 34.4109 0.0361328 35.6946 0.0361328C36.8713 0.0361328 37.9054 0.251922 38.7969 0.647536C39.724 1.07912 40.4729 1.65455 41.0434 2.44578L38.476 4.74754C37.7271 3.81245 36.8713 3.3449 35.8729 3.3449C35.0171 3.3449 34.3395 3.63262 33.8403 4.1721C33.3411 4.71157 33.0558 5.46683 33.0558 6.36596C33.0558 7.30104 33.3054 8.02034 33.8403 8.55982C34.3395 9.09929 35.0171 9.38701 35.8729 9.38701C36.8713 9.38701 37.7628 8.91947 38.476 7.98438L41.0434 10.2861C40.4372 11.0774 39.6884 11.6528 38.7969 12.0844C37.8698 12.516 36.8357 12.6958 35.6946 12.6958C34.4465 12.6598 33.3054 12.3721 32.2713 11.8326Z" fill="#4DF8AA"/>
<path d="M44.645 11.8325C43.6109 11.293 42.8264 10.5377 42.2202 9.56667C41.6497 8.59561 41.3644 7.51667 41.3644 6.32982C41.3644 5.10702 41.6497 4.02807 42.2202 3.09298C42.7907 2.12193 43.6109 1.36667 44.645 0.827193C45.6791 0.287719 46.8202 0 48.1039 0C49.3876 0 50.5644 0.287719 51.5628 0.827193C52.5969 1.36667 53.3814 2.12193 53.9876 3.09298C54.5582 4.06404 54.8435 5.14298 54.8435 6.32982C54.8435 7.55263 54.5582 8.63158 53.9876 9.56667C53.4171 10.5377 52.5969 11.293 51.5628 11.8325C50.5287 12.3719 49.3876 12.6596 48.1039 12.6596C46.8202 12.6596 45.6791 12.3719 44.645 11.8325ZM49.4946 8.99123C49.8869 8.73947 50.2078 8.37982 50.4574 7.94825C50.707 7.4807 50.814 6.97719 50.814 6.36579C50.814 5.75439 50.707 5.21491 50.4574 4.78333C50.2078 4.31579 49.8869 3.99211 49.4946 3.74035C49.1024 3.4886 48.6388 3.3807 48.1396 3.3807C47.6404 3.3807 47.1768 3.4886 46.7845 3.74035C46.3923 3.99211 46.0714 4.35175 45.8217 4.78333C45.5721 5.25088 45.4652 5.75439 45.4652 6.36579C45.4652 6.97719 45.5721 7.51667 45.8217 7.94825C46.0714 8.41579 46.3923 8.73947 46.7845 8.99123C47.1768 9.24298 47.6404 9.35088 48.1396 9.35088C48.6388 9.35088 49.0667 9.24298 49.4946 8.99123Z" fill="#4DF8AA"/>
<path d="M65.0062 0.82756C65.8264 1.18721 66.4683 1.72668 66.8962 2.41002C67.3241 3.09335 67.5737 3.92054 67.5737 4.81966C67.5737 5.75475 67.3597 6.54598 66.8962 7.22931C66.4326 7.91265 65.8264 8.45212 65.0062 8.81177C64.1861 9.17142 63.2233 9.35124 62.1179 9.35124H60.4062V12.3363H56.3411V0.288086H62.1179C63.2233 0.288086 64.1861 0.46791 65.0062 0.82756ZM63.0807 5.89861C63.3659 5.64686 63.5086 5.28721 63.5086 4.85563C63.5086 4.42405 63.3659 4.0644 63.0807 3.81265C62.7954 3.56089 62.4031 3.453 61.8326 3.453H60.3706V6.29423H61.8326C62.4031 6.25826 62.7954 6.15037 63.0807 5.89861Z" fill="#4DF8AA"/>
<path d="M8.37984 24.9243H11.8744V30.0313C11.1612 30.5348 10.3411 30.8944 9.41395 31.1822C8.48682 31.4339 7.55969 31.5778 6.66822 31.5778C5.3845 31.5778 4.24341 31.326 3.24496 30.7866C2.21085 30.2111 1.42636 29.4918 0.855814 28.5208C0.285271 27.5497 0 26.4708 0 25.248C0 24.0252 0.285271 22.9462 0.855814 21.9752C1.42636 21.0041 2.24651 20.2488 3.28062 19.7453C4.31473 19.2059 5.49147 18.9541 6.77519 18.9541C7.95194 18.9541 8.98605 19.1699 9.94884 19.5655C10.876 19.9611 11.6605 20.5366 12.2667 21.2918L9.62791 23.5576C8.87907 22.6585 7.9876 22.2269 6.95349 22.2269C6.06202 22.2269 5.34884 22.5146 4.81395 23.0541C4.27907 23.5936 4.02946 24.3488 4.02946 25.248C4.02946 26.1471 4.27907 26.9023 4.81395 27.4418C5.34884 27.9813 6.02636 28.269 6.88217 28.269C7.38139 28.269 7.88062 28.1611 8.34419 27.9813V24.9243H8.37984Z" fill="#02AC8F"/>
<path d="M16.4388 30.7504C15.4047 30.2109 14.6202 29.4557 14.014 28.4846C13.4434 27.5136 13.1581 26.4346 13.1581 25.2478C13.1581 24.0609 13.4434 22.946 14.014 22.011C14.5845 21.0399 15.4047 20.2846 16.4388 19.7452C17.4729 19.2057 18.614 18.918 19.8977 18.918C21.1814 18.918 22.3581 19.2057 23.3566 19.7452C24.3907 20.2846 25.1752 21.0399 25.7814 22.011C26.3519 22.982 26.6372 24.0609 26.6372 25.2478C26.6372 26.4346 26.3519 27.5495 25.7814 28.4846C25.2109 29.4557 24.3907 30.2109 23.3566 30.7504C22.3225 31.2899 21.1814 31.5776 19.8977 31.5776C18.614 31.5776 17.4372 31.2899 16.4388 30.7504ZM21.2527 27.9092C21.645 27.6574 21.9659 27.2978 22.2155 26.8662C22.4651 26.4346 22.5721 25.8952 22.5721 25.2838C22.5721 24.6724 22.4651 24.1329 22.2155 23.7013C21.9659 23.2338 21.645 22.9101 21.2527 22.6583C20.8605 22.4066 20.3969 22.2987 19.8977 22.2987C19.3985 22.2987 18.9349 22.4066 18.5426 22.6583C18.1504 22.9101 17.8295 23.2697 17.5798 23.7013C17.3302 24.1688 17.2233 24.6724 17.2233 25.2838C17.2233 25.8952 17.3302 26.4346 17.5798 26.8662C17.8295 27.3338 18.1504 27.6574 18.5426 27.9092C18.9349 28.1609 19.3985 28.2688 19.8977 28.2688C20.3969 28.2688 20.8605 28.1609 21.2527 27.9092Z" fill="#02AC8F"/>
<path d="M30.9519 30.7504C29.9178 30.2109 29.1333 29.4557 28.5271 28.4846C27.9566 27.5136 27.6713 26.4346 27.6713 25.2478C27.6713 24.0609 27.9566 22.946 28.5271 22.011C29.0977 21.0399 29.9178 20.2846 30.9519 19.7452C31.9861 19.2057 33.1271 18.918 34.4109 18.918C35.6946 18.918 36.8713 19.2057 37.8698 19.7452C38.9039 20.2846 39.6884 21.0399 40.2946 22.011C40.8651 22.982 41.1504 24.0609 41.1504 25.2478C41.1504 26.4346 40.8651 27.5495 40.2946 28.4846C39.724 29.4557 38.9039 30.2109 37.8698 30.7504C36.8357 31.2899 35.6946 31.5776 34.4109 31.5776C33.1271 31.5776 31.9504 31.2899 30.9519 30.7504ZM35.7659 27.9092C36.1581 27.6574 36.4791 27.2978 36.7287 26.8662C36.9783 26.4346 37.0853 25.8952 37.0853 25.2838C37.0853 24.6724 36.9783 24.1329 36.7287 23.7013C36.4791 23.2338 36.1581 22.9101 35.7659 22.6583C35.3737 22.4066 34.9101 22.2987 34.4109 22.2987C33.9116 22.2987 33.4481 22.4066 33.0558 22.6583C32.6636 22.9101 32.3426 23.2697 32.093 23.7013C31.8434 24.1688 31.7364 24.6724 31.7364 25.2838C31.7364 25.8952 31.8434 26.4346 32.093 26.8662C32.3426 27.3338 32.6636 27.6574 33.0558 27.9092C33.4481 28.1609 33.9116 28.2688 34.4109 28.2688C34.9101 28.2688 35.3737 28.1609 35.7659 27.9092Z" fill="#02AC8F"/>
<path d="M42.6481 19.2061H48.5675C49.8868 19.2061 51.0636 19.4578 52.0977 19.9254C53.1318 20.4289 53.9163 21.1122 54.4868 22.0113C55.0574 22.9104 55.3426 23.9894 55.3426 25.2122C55.3426 26.435 55.0574 27.5139 54.4868 28.4131C53.9163 29.3122 53.1318 30.0315 52.0977 30.499C51.0636 31.0025 49.8868 31.2183 48.5675 31.2183H42.6481V19.2061ZM48.3892 28.1253C49.245 28.1253 49.9581 27.8736 50.4574 27.3701C50.9923 26.8666 51.2419 26.1473 51.2419 25.2482C51.2419 24.349 50.9923 23.6297 50.4574 23.1262C49.9225 22.6227 49.245 22.371 48.3892 22.371H46.6775V28.0894H48.3892V28.1253Z" fill="#02AC8F"/>
<path d="M68.0015 26.1113C68.3938 26.6148 68.5721 27.2262 68.5721 27.9455C68.5721 28.9885 68.1442 29.8157 67.2884 30.3911C66.4326 30.9666 65.1488 31.2543 63.5085 31.2543H56.769V19.2061H63.1876C64.7922 19.2061 66.0046 19.4938 66.8248 20.0692C67.645 20.6447 68.0372 21.3999 68.0372 22.371C68.0372 22.9464 67.8946 23.4499 67.6093 23.8815C67.324 24.3131 66.9318 24.7087 66.3612 24.9604C67.0744 25.2482 67.6093 25.6078 68.0015 26.1113ZM60.7628 22.0473V23.8455H62.6527C63.5442 23.8455 63.9721 23.5578 63.9721 22.9464C63.9721 22.335 63.5442 22.0473 62.6527 22.0473H60.7628ZM64.507 27.478C64.507 26.8306 64.0791 26.5429 63.1876 26.5429H60.7628V28.449H63.1876C64.0791 28.449 64.507 28.1254 64.507 27.478Z" fill="#02AC8F"/>
<path d="M76.8807 26.9025V31.2903H72.8512V26.8666L68.3225 19.2061H72.6016L75.062 23.378L77.5225 19.2061H81.4093L76.8807 26.9025Z" fill="#02AC8F"/>
<path d="M91.8573 28.2332V31.2903H81.9085V19.2061H91.6434V22.2631H85.8666V23.6657H90.9302V26.6148H85.8666V28.1973H91.8573V28.2332Z" fill="#02AC8F"/>
<path d="M27.1365 40.8197C22.8574 40.8197 19.0776 38.5179 18.0791 35.3171L21.5024 34.2741C21.9303 35.7127 24.2124 37.2592 27.1365 37.2592C29.9535 37.2592 32.2357 35.6767 32.7349 34.2021L36.0869 35.389C35.0171 38.5539 31.2372 40.8197 27.1365 40.8197Z" fill="#02AC8F"/>
</svg>
