<svg width="19" height="11" viewBox="0 0 19 11" fill="none" xmlns="http://www.w3.org/2000/svg">
<path d="M16.1038 5.34429C17.0116 4.24429 19.064 1.59429 18.6036 0.531786C18.5316 0.369388 18.4094 0.231609 18.2532 0.136727C18.0969 0.0418457 17.914 -0.00565191 17.7286 0.000536164H15.2223C15.1116 0.0013793 15.003 0.0287414 14.9064 0.080089C14.8098 0.131437 14.7284 0.20511 14.6697 0.294286C13.9038 1.4755 13.0531 2.60525 12.1239 3.67554V1.21929C12.1275 1.0583 12.0968 0.898294 12.0336 0.748888C11.9704 0.599482 11.8761 0.463767 11.7562 0.34991C11.6364 0.236052 11.4935 0.146406 11.3363 0.0863642C11.179 0.0263228 11.0106 -0.00287204 10.8412 0.000536164H7.70991C7.62334 6.06056e-05 7.53751 0.0158263 7.45737 0.0469291C7.37722 0.078032 7.30432 0.12386 7.24285 0.181786C7.09826 0.2981 6.99038 0.450176 6.93116 0.621163C6.87195 0.79215 6.86371 0.975374 6.90736 1.15054C6.98838 1.37775 7.13139 1.58047 7.32179 1.73804C7.43325 1.81559 7.52362 1.91729 7.5854 2.03468C7.64718 2.15208 7.67859 2.28179 7.67702 2.41304V4.65054C7.23627 4.28179 6.39425 3.25679 5.19043 0.394286C5.14168 0.277995 5.0573 0.17829 4.94822 0.108086C4.83915 0.0378827 4.71039 0.000414988 4.57864 0.000536164H1.44738C1.27291 0.000536164 1.10559 0.066384 0.982224 0.183594C0.858858 0.300804 0.789551 0.459776 0.789551 0.625536C0.789551 0.791296 0.858858 0.950268 0.982224 1.06748C1.10559 1.18469 1.27291 1.25054 1.44738 1.25054H4.1379C5.45356 4.28179 6.63765 5.86304 7.75596 6.08179C7.93906 6.12361 8.13017 6.12212 8.31253 6.07745C8.49489 6.03277 8.66292 5.94627 8.80191 5.82554C8.92344 5.70912 8.99195 5.552 8.99268 5.38804V2.41304C8.99946 1.99772 8.86826 1.59093 8.61771 1.25054H10.8083V4.78804C10.8078 4.87029 10.8244 4.95183 10.8571 5.02798C10.8899 5.10413 10.9381 5.17339 10.9991 5.23179C11.0911 5.31915 11.203 5.3854 11.3261 5.42547C11.4493 5.46554 11.5804 5.47839 11.7095 5.46304C12.4726 5.37554 13.7817 3.96304 15.5907 1.25054H17.2813C16.6066 2.57662 15.7602 3.81747 14.7618 4.94429C14.6393 5.06139 14.5705 5.2198 14.5705 5.38491C14.5705 5.55003 14.6393 5.70843 14.7618 5.82554C16.7353 7.66929 17.255 8.56304 17.3932 8.95054H15.2684C14.9488 8.70201 14.6656 8.41405 14.4263 8.09429C14.0397 7.62386 13.6245 7.17518 13.183 6.75054C12.9133 6.49429 12.2029 5.81304 11.4661 6.12554C11.2557 6.2232 11.0808 6.37824 10.9636 6.57083C10.8464 6.76343 10.7924 6.98484 10.8083 7.20679V8.83804C10.4092 8.92309 9.99985 8.95672 9.5913 8.93804C6.46661 8.93804 4.05238 4.82554 2.88802 2.36929C2.80996 2.22854 2.67834 2.12138 2.52 2.06964C2.36165 2.0179 2.1885 2.02548 2.03583 2.09083C1.88317 2.15618 1.76248 2.27439 1.69836 2.42135C1.63425 2.56832 1.63153 2.73299 1.69078 2.88179C3.00643 5.61304 5.72985 10.188 9.58472 10.188C10.3412 10.188 12.1174 10.188 12.1174 8.96929V7.49429L12.2489 7.61304C12.6564 8.0094 13.0407 8.42669 13.4001 8.86304C14.0251 9.59429 14.5184 10.1755 15.2157 10.1755H17.7221C17.9312 10.1743 18.1352 10.1143 18.3084 10.0031C18.4817 9.89185 18.6164 9.73439 18.6957 9.55054C18.9588 8.98179 18.8338 8.01304 16.1038 5.34429Z" fill="white"/>
</svg>
