<svg width="28" height="28" viewBox="0 0 28 28" fill="none" xmlns="http://www.w3.org/2000/svg">
<path d="M22.419 14.4597C23.6294 12.993 26.366 9.4597 25.752 8.04303C25.6561 7.8265 25.4932 7.6428 25.2848 7.51629C25.0765 7.38978 24.8326 7.32645 24.5855 7.3347H21.2437C21.0961 7.33582 20.9512 7.37231 20.8224 7.44077C20.6936 7.50923 20.5851 7.60746 20.5069 7.72637C19.4856 9.30132 18.3515 10.8077 17.1125 12.2347V8.9597C17.1173 8.74506 17.0763 8.53171 16.9921 8.3325C16.9078 8.13329 16.782 7.95234 16.6222 7.80053C16.4624 7.64872 16.272 7.52919 16.0623 7.44914C15.8526 7.36908 15.6281 7.33015 15.4022 7.3347H11.2271C11.1117 7.33407 10.9973 7.35509 10.8904 7.39656C10.7836 7.43803 10.6864 7.49913 10.6044 7.57637C10.4116 7.73145 10.2678 7.93422 10.1888 8.1622C10.1099 8.39018 10.0989 8.63448 10.1571 8.86803C10.2651 9.17098 10.4558 9.44128 10.7097 9.65137C10.8583 9.75477 10.9788 9.89036 11.0611 10.0469C11.1435 10.2034 11.1854 10.3764 11.1833 10.5514V13.5347C10.5956 13.043 9.47293 11.6764 7.86783 7.8597C7.80284 7.70464 7.69033 7.5717 7.5449 7.4781C7.39946 7.38449 7.22779 7.33454 7.05212 7.3347H2.8771C2.64448 7.3347 2.42139 7.4225 2.2569 7.57878C2.09241 7.73506 2 7.94702 2 8.16803C2 8.38905 2.09241 8.60101 2.2569 8.75729C2.42139 8.91357 2.64448 9.00137 2.8771 9.00137H6.46446C8.21867 13.043 9.79746 15.1514 11.2885 15.443C11.5327 15.4988 11.7875 15.4968 12.0306 15.4372C12.2738 15.3777 12.4978 15.2623 12.6831 15.1014C12.8452 14.9461 12.9365 14.7366 12.9375 14.518V10.5514C12.9466 9.9976 12.7716 9.45523 12.4375 9.00137H15.3583V13.718C15.3576 13.8277 15.3798 13.9364 15.4234 14.038C15.4671 14.1395 15.5314 14.2318 15.6127 14.3097C15.7355 14.4262 15.8846 14.5145 16.0488 14.5679C16.2129 14.6214 16.3878 14.6385 16.5599 14.618C17.5774 14.5014 19.3228 12.618 21.7349 9.00137H23.989C23.0894 10.7695 21.9609 12.4239 20.6297 13.9264C20.4663 14.0825 20.3747 14.2937 20.3747 14.5139C20.3747 14.734 20.4663 14.9452 20.6297 15.1014C23.261 17.5597 23.9539 18.7514 24.1381 19.268H21.3051C20.879 18.9367 20.5014 18.5527 20.1824 18.1264C19.6668 17.4991 19.1133 16.9009 18.5247 16.3347C18.165 15.993 17.2178 15.0847 16.2354 15.5014C15.9549 15.6316 15.7217 15.8383 15.5654 16.0951C15.4092 16.3519 15.3371 16.6471 15.3583 16.943V19.118C14.8262 19.2314 14.2804 19.2763 13.7357 19.2514C9.56942 19.2514 6.35044 13.768 4.79797 10.493C4.69388 10.3054 4.51839 10.1625 4.30726 10.0935C4.09614 10.0245 3.86527 10.0346 3.66171 10.1218C3.45815 10.2089 3.29723 10.3665 3.21175 10.5625C3.12626 10.7584 3.12264 10.978 3.20163 11.1764C4.95584 14.818 8.58706 20.918 13.7269 20.918C14.7356 20.918 17.1037 20.918 17.1037 19.293V17.3264L17.2792 17.4847C17.8225 18.0132 18.3349 18.5696 18.8141 19.1514C19.6474 20.1264 20.3052 20.9014 21.2349 20.9014H24.5767C24.8555 20.8997 25.1275 20.8197 25.3585 20.6714C25.5895 20.5231 25.7692 20.3132 25.8748 20.068C26.2256 19.3097 26.059 18.018 22.419 14.4597Z" fill="white"/>
</svg>
