<svg width="22" height="22" viewBox="0 0 22 22" fill="none" xmlns="http://www.w3.org/2000/svg">
<g clip-path="url(#clip0)">
<path d="M10.9999 21.5806H10.9956C9.33126 21.5799 7.68103 21.187 6.20219 20.4416L1.6436 21.4785C1.36544 21.5417 1.0741 21.4582 0.871623 21.2572C0.669149 21.0562 0.583699 20.7655 0.644897 20.4868L1.63269 15.9969C0.784058 14.4297 0.335978 12.7132 0.333537 11.0112C0.333374 11.0054 0.333374 10.9995 0.333374 10.9938C0.334513 8.17334 1.44991 5.51709 3.47384 3.51449C5.4932 1.51644 8.16589 0.416016 10.9997 0.416016C13.8399 0.417155 16.5083 1.51855 18.5144 3.51709C20.5482 5.54346 21.6677 8.20182 21.6667 11.0023C21.6659 13.1187 21.0313 15.1641 19.8316 16.9172C19.5717 17.297 19.0531 17.3942 18.6732 17.1343C18.2935 16.8743 18.1962 16.3558 18.4561 15.9759C19.4654 14.501 19.9992 12.7809 20 11.0016C20.0009 8.64762 19.0555 6.40885 17.3381 4.69775C15.6465 3.01237 13.3954 2.08366 10.9994 2.08268C6.04447 2.08268 2.01046 6.07194 2.00004 10.9788C2.00004 10.9842 2.0002 10.9894 2.0002 10.9946C1.99955 12.5135 2.4268 14.0535 3.23555 15.4482C3.34021 15.6287 3.37341 15.8418 3.32849 16.0454L2.55489 19.5618L6.13155 18.7482C6.32898 18.7034 6.53601 18.7319 6.71407 18.8284C8.02087 19.5379 9.5015 19.9132 10.996 19.9139H10.9997C12.6249 19.9139 14.2209 19.4744 15.6151 18.6432C16.0103 18.4074 16.5218 18.5368 16.7575 18.9321C16.9932 19.3275 16.864 19.8389 16.4686 20.0747C14.8164 21.0597 12.9253 21.5806 10.9997 21.5806H10.9999ZM8.64636 6.75846C8.46358 6.35352 8.2712 6.33968 8.09737 6.33268H7.62976C7.467 6.33268 7.20268 6.39355 6.97921 6.63688C6.75557 6.88021 6.1252 7.46842 6.1252 8.66488C6.1252 9.86133 6.99955 11.0176 7.12146 11.18C7.24353 11.3421 8.80945 13.8758 11.2893 14.8506C13.3503 15.6606 13.7697 15.4995 14.217 15.4588C14.6644 15.4185 15.6607 14.8708 15.8638 14.3029C16.0673 13.7352 16.0673 13.2485 16.0062 13.1468C15.9454 13.0456 15.7826 12.9847 15.5386 12.8631C15.2945 12.7415 14.0987 12.1431 13.875 12.062C13.6514 11.981 13.4888 11.9404 13.326 12.1839C13.1633 12.4271 12.6841 12.9894 12.5417 13.1515C12.3995 13.3141 12.257 13.3343 12.0131 13.2127C11.7691 13.0907 10.9913 12.8294 10.0591 12.0011C9.3337 11.3564 8.83044 10.5345 8.68803 10.291C8.54561 10.0479 8.67273 9.91601 8.79513 9.79476C8.90466 9.68587 9.05294 9.53695 9.17501 9.39502C9.29675 9.25309 9.33158 9.15169 9.4128 8.98942C9.49418 8.82715 9.45349 8.68522 9.39262 8.56348C9.33158 8.44189 8.86316 7.23926 8.6462 6.75846" fill="white"/>
</g>
<defs>
<clipPath id="clip0">
<rect width="21.3333" height="21.3333" fill="white" transform="translate(0.333374 0.333008)"/>
</clipPath>
</defs>
</svg>
