<svg width="19" height="14" viewBox="0 0 19 14" fill="none" xmlns="http://www.w3.org/2000/svg">
<path d="M9.78891 13.5388C9.7874 13.5388 9.78575 13.5388 9.78411 13.5388C9.24097 13.5351 4.43939 13.4913 3.079 13.1234C2.12827 12.8678 1.37777 12.1181 1.12151 11.1673C0.765552 9.83092 0.788212 7.25805 0.790684 7.05261C0.788349 6.84812 0.765415 4.25397 1.12041 2.90664C1.12082 2.9054 1.1211 2.90403 1.12151 2.90279C1.37488 1.96277 2.14228 1.18988 3.07667 0.933625C3.079 0.932938 3.08147 0.932389 3.08381 0.931702C4.42881 0.578217 9.23987 0.534958 9.78411 0.53125H9.79386C10.3384 0.534958 15.1527 0.578766 16.5006 0.94722C17.4496 1.20238 18.2001 1.95192 18.4563 2.90279C18.8252 4.24848 18.7907 6.84977 18.7871 7.06812C18.7877 7.11646 18.7895 7.31381 18.7863 7.60508C18.7821 7.99084 18.4681 8.30066 18.0833 8.30066C18.0807 8.30066 18.0782 8.30066 18.0756 8.30052C17.6873 8.2964 17.3759 7.97821 17.3801 7.58998C17.3835 7.27851 17.3809 7.0776 17.3809 7.07554C17.3808 7.06826 17.3809 7.06085 17.3809 7.05343C17.3938 6.33465 17.3685 4.2537 17.0994 3.27166C16.9722 2.8002 16.6021 2.43065 16.1326 2.30445C15.1387 2.03267 11.2215 1.94753 9.78891 1.9375C8.35671 1.94753 4.44406 2.03047 3.44471 2.29085C2.98424 2.41857 2.60577 2.8013 2.47956 3.26726C2.167 4.45653 2.19652 7.01772 2.1968 7.04341V7.06194C2.18746 7.77221 2.22028 9.82913 2.4797 10.8033C2.60549 11.2699 2.97559 11.6394 3.44498 11.7657C4.44872 12.0372 8.35945 12.1225 9.78878 12.1326C11.2218 12.1225 15.1383 12.0396 16.1346 11.7788C16.6031 11.652 16.9723 11.2829 17.0985 10.8149C17.1996 10.44 17.5855 10.2179 17.9604 10.3191C18.3353 10.4202 18.5574 10.806 18.4563 11.181C18.1999 12.1317 17.4496 12.8814 16.4977 13.1374C16.4965 13.1377 16.4951 13.1381 16.4939 13.1384C15.149 13.4918 10.3378 13.5351 9.79372 13.5388C9.79221 13.5388 9.79056 13.5388 9.78891 13.5388ZM8.99295 9.65321L12.5845 7.57995C12.7911 7.46061 12.9185 7.23937 12.9185 6.99987C12.9185 6.76037 12.7911 6.53913 12.5845 6.41979L8.99295 4.34653C8.7871 4.22774 8.53386 4.22815 8.32855 4.34777C8.12311 4.46725 7.99663 4.6878 7.99663 4.92647V9.07313C7.99663 9.31181 8.12311 9.53236 8.32855 9.65198C8.43155 9.71199 8.54663 9.74206 8.66171 9.74206C8.77611 9.74206 8.89037 9.7124 8.99295 9.65321Z" fill="white"/>
</svg>
