<svg width="24" height="24" viewBox="0 0 24 24" fill="none" xmlns="http://www.w3.org/2000/svg">
<g clip-path="url(#clip0)">
<path d="M11.9992 20.7184C11.9971 20.7184 11.9949 20.7184 11.9927 20.7184C11.2686 20.7135 4.86645 20.6551 3.0526 20.1645C1.78496 19.8238 0.784288 18.8242 0.442612 17.5564C-0.0319979 15.7746 -0.00178541 12.3441 0.0015105 12.0701C-0.0016023 11.7975 -0.032181 8.33863 0.441147 6.54218C0.441697 6.54053 0.442063 6.5387 0.442612 6.53705C0.780442 5.28369 1.80364 4.25318 3.04949 3.9115C3.0526 3.91058 3.0559 3.90985 3.05901 3.90894C4.85235 3.43762 11.2671 3.37994 11.9927 3.375H12.0057C12.7318 3.37994 19.1509 3.43835 20.9481 3.92963C22.2133 4.26984 23.214 5.26923 23.5557 6.53705C24.0475 8.33131 24.0016 11.7997 23.9968 12.0908C23.9975 12.1553 23.9999 12.4184 23.9957 12.8068C23.99 13.3211 23.5714 13.7342 23.0584 13.7342C23.0549 13.7342 23.0516 13.7342 23.0481 13.734C22.5303 13.7285 22.1152 13.3043 22.1207 12.7866C22.1253 12.3714 22.1218 12.1035 22.1218 12.1007C22.1216 12.091 22.1218 12.0811 22.1218 12.0712C22.139 11.1129 22.1053 8.33826 21.7464 7.02888C21.5769 6.40027 21.0834 5.90754 20.4574 5.73926C19.1322 5.3769 13.9093 5.26337 11.9992 5.25C10.0895 5.26337 4.87267 5.37397 3.54021 5.72113C2.92626 5.89142 2.42162 6.40174 2.25335 7.02302C1.8366 8.60871 1.87596 12.0236 1.87633 12.0579V12.0826C1.86388 13.0296 1.90764 15.7722 2.25353 17.0711C2.42125 17.6931 2.91472 18.1859 3.54058 18.3543C4.8789 18.7163 10.0932 18.83 11.999 18.8434C13.9097 18.83 19.1317 18.7194 20.4601 18.3717C21.0847 18.2027 21.577 17.7105 21.7453 17.0865C21.8801 16.5866 22.3946 16.2905 22.8945 16.4255C23.3944 16.5603 23.6905 17.0746 23.5557 17.5747C23.2138 18.8423 22.2133 19.8419 20.9442 20.1832C20.9426 20.1836 20.9408 20.1841 20.9391 20.1845C19.146 20.6558 12.731 20.7135 12.0056 20.7184C12.0035 20.7184 12.0013 20.7184 11.9992 20.7184ZM10.9379 15.5376L15.7266 12.7733C16.002 12.6142 16.1719 12.3192 16.1719 11.9998C16.1719 11.6805 16.002 11.3855 15.7266 11.2264L10.9379 8.46204C10.6634 8.30366 10.3257 8.30421 10.052 8.46369C9.77808 8.62299 9.60944 8.91706 9.60944 9.2353V14.7642C9.60944 15.0824 9.77808 15.3765 10.052 15.536C10.1893 15.616 10.3428 15.6561 10.4962 15.6561C10.6487 15.6561 10.8011 15.6165 10.9379 15.5376Z" fill="white"/>
</g>
<defs>
<clipPath id="clip0">
<rect width="24" height="24" fill="white"/>
</clipPath>
</defs>
</svg>
